<svg width="35" height="39" viewBox="0 0 35 39" fill="none" xmlns="http://www.w3.org/2000/svg"><path d="M0.0385471 17.5582C1.74218 21.1802 3.54063 24.7497 5.43392 28.2668C7.32892 31.7743 9.50712 35.1395 11.3394 38.6761C11.5913 39.1138 12.2321 39.1021 12.4773 38.6761C13.9497 36.2092 15.095 33.5167 16.4405 30.9756C20.4387 23.4352 24.796 16.0807 29.5169 8.96499C31.3023 6.27643 33.1171 3.60815 34.9122 0.914519C35.2752 0.361589 34.4218 -0.343519 33.9999 0.189119C30.5244 4.74216 27.2859 9.48344 24.2981 14.3928C19.787 21.6441 15.3993 29.1131 11.8158 36.8808C11.8158 36.8808 11.7401 36.8808 11.7147 36.8808C9.77858 33.9336 8.04095 30.8177 6.37075 27.7139C4.4415 24.2137 2.61361 20.6627 0.887089 17.0611C0.612416 16.4828 -0.216507 16.9901 0.0532611 17.5684L0.0385471 17.5582Z" fill="url(#paint0_linear_2030_42171)"/><path d="M0.0385471 17.5582C1.74218 21.1802 3.54063 24.7497 5.43392 28.2668C7.32892 31.7743 9.50712 35.1395 11.3394 38.6761C11.5913 39.1138 12.2321 39.1021 12.4773 38.6761C13.9497 36.2092 15.095 33.5167 16.4405 30.9756C20.4387 23.4352 24.796 16.0807 29.5169 8.96499C31.3023 6.27643 33.1171 3.60815 34.9122 0.914519C35.2752 0.361589 34.4218 -0.343519 33.9999 0.189119C30.5244 4.74216 27.2859 9.48344 24.2981 14.3928C19.787 21.6441 15.3993 29.1131 11.8158 36.8808C11.8158 36.8808 11.7401 36.8808 11.7147 36.8808C9.77858 33.9336 8.04095 30.8177 6.37075 27.7139C4.4415 24.2137 2.61361 20.6627 0.887089 17.0611C0.612416 16.4828 -0.216507 16.9901 0.0532611 17.5684L0.0385471 17.5582Z" fill="black" fill-opacity="0.2"/><defs><linearGradient id="paint0_linear_2030_42171" x1="0" y1="19.5" x2="35.0006" y2="19.5" gradientUnits="userSpaceOnUse"><stop stop-color="#D7AA2D"/><stop offset="0.21" stop-color="#D7AA2D"/><stop offset="0.39" stop-color="#F2E278"/><stop offset="0.48" stop-color="#FFFB9A"/><stop offset="0.5" stop-color="#F9EE89"/><stop offset="0.62" stop-color="#D7AA2D"/><stop offset="0.71" stop-color="#C39729"/><stop offset="0.91" stop-color="#916720"/><stop offset="1" stop-color="#764E1B"/></linearGradient></defs></svg>
