<svg width="44" height="30" viewBox="0 0 44 30" fill="none" xmlns="http://www.w3.org/2000/svg">
<path d="M16.9906 2.12476C13.912 -0.874898 0.699814 9.24899 0.699814 9.24899V1.7498C0.699814 1.7498 5.23216 0 11.4321 0C17.2899 0 18.6582 2.54137 18.6582 5.33272C18.6582 18.4563 -2.59255 18.9979 2.06807 29.08H2.49565C1.08464 24.3722 4.29148 22.4558 8.61004 23.0391C12.8858 23.6223 16.6913 25.5388 19.6844 22.7474L19.8982 28.8717C19.8982 28.8717 19.1285 29.9133 16.9906 29.9966C15.6651 30.0383 13.7838 29.705 11.1755 28.5384C6.77145 26.5803 1.55498 24.1639 3.09425 29.58H1.81152C-7.42421 14.5817 21.9078 6.87421 16.9906 2.12476ZM32.9253 0C40.1087 0 44.0424 6.95753 43.9997 15.04C43.9997 23.1224 40.0659 30.0383 32.8826 29.9966C25.6565 29.9966 21.7655 23.0391 21.7655 14.9567C21.7655 6.91587 25.742 0 32.9253 0ZM37.5432 17.873C39.9376 11.2488 40.9211 2.87467 37.2439 1.62481C33.5239 0.374957 30.7019 5.45771 28.2647 12.1653C25.8275 18.8312 24.8868 27.1219 28.564 28.3718C32.2412 29.6216 35.106 24.5806 37.5432 17.873Z" fill="url(#paint0_linear_2010_31627)"/>
<defs>
<linearGradient id="paint0_linear_2010_31627" x1="-2.29434" y1="-5.38361" x2="54.6153" y2="31.877" gradientUnits="userSpaceOnUse">
<stop offset="0.348445" stop-color="#6E8004"/>
<stop offset="1" stop-color="#C17E00"/>
</linearGradient>
</defs>
</svg>
