<svg width="64" height="64" viewBox="0 0 64 64" fill="none" xmlns="http://www.w3.org/2000/svg"><path d="M41.5053 22C41.3066 22 41.0086 21.9019 40.8099 21.8038C29.2865 15.0348 29.5845 8.46194 30.2799 5.9113C30.9753 3.06634 33.2601 1.10431 35.7436 1.0062C38.5251 0.908102 40.4125 1.98722 41.5053 3.26255C42.6973 2.08532 44.4855 0.908102 47.267 1.0062C49.7505 1.10431 52.0353 3.16444 52.7307 5.9113C53.426 8.46194 53.6247 15.0348 42.2006 21.8038C42.002 21.9019 41.8033 22 41.5053 22ZM36.1409 3.65495C36.0416 3.65495 35.9422 3.65495 35.9422 3.65495C34.8495 3.65495 33.4588 4.73407 32.9621 6.59801C32.5647 8.06954 32.068 13.1708 41.6046 19.0569C51.0419 13.1708 50.6445 8.06954 50.2472 6.59801C49.7505 4.73407 48.3597 3.75306 47.267 3.65495C43.8894 3.55685 42.896 6.1075 42.896 6.1075C42.6973 6.69611 42.2007 6.99042 41.6046 6.99042C41.0086 6.99042 40.5119 6.59801 40.3132 6.1075C40.1145 5.9113 39.2205 3.65495 36.1409 3.65495Z" fill="url(#paint0_linear_2716_53)"/><path d="M36.3857 13C36.0859 13 35.7861 12.9014 35.6862 12.6057C34.1874 10.8313 33.6877 8.95831 34.1874 7.38107C34.687 5.80383 36.0859 5.11378 36.8853 5.01521C37.3849 4.91663 37.8845 5.31094 37.9845 5.80383C38.0844 6.29672 37.6847 6.78961 37.285 6.88818C37.1851 6.88818 36.3857 7.08534 36.0859 7.97254C35.7861 9.05689 36.1858 10.2398 37.1851 11.7185C37.4849 12.1128 37.3849 12.7043 36.9852 13C36.7854 13 36.5855 13 36.3857 13Z" fill="url(#paint1_linear_2716_53)"/><path d="M21.5 60C10.1111 60 1 50.7899 1 39.5C1 28.1111 10.1111 19 21.5 19C25.2633 19 29.0266 20.0894 32.1957 22.07C33.087 22.5652 33.285 23.7536 32.7899 24.5459C32.2947 25.4372 31.1063 25.6353 30.314 25.1401C27.6401 23.5556 24.57 22.6643 21.5 22.6643C12.1908 22.6643 4.66425 30.1908 4.66425 39.5C4.66425 48.8092 12.1908 56.3357 21.5 56.3357C30.8092 56.3357 38.3357 48.8092 38.3357 39.5C38.3357 36.529 37.5435 33.657 36.157 31.1812C35.6618 30.2899 35.9589 29.2005 36.8502 28.7053C37.7415 28.2101 38.8309 28.5072 39.3261 29.3986C41.1087 32.4686 42 36.0338 42 39.5C42 50.7899 32.7899 60 21.5 60Z" fill="url(#paint2_linear_2716_53)"/><path d="M43 63C41.209 63 39.4179 62.801 37.6269 62.3035C36.6318 62.005 36.0348 61.01 36.3333 60.0149C36.6318 59.0199 37.6269 58.4229 38.6219 58.7214C40.0149 59.1194 41.5075 59.3184 43 59.3184C51.9552 59.3184 59.3184 51.9552 59.3184 43C59.3184 34.0448 51.9552 26.6816 43 26.6816C34.0448 26.6816 26.6816 34.0448 26.6816 43C26.6816 45.2886 27.1791 47.5771 28.0746 49.6667C28.4726 50.5622 28.0746 51.6567 27.1791 52.0547C26.2836 52.4527 25.1891 52.0547 24.791 51.1592C23.597 48.5721 23 45.7861 23 43C23 31.9552 31.9552 23 43 23C54.0448 23 63 31.9552 63 43C62.9005 54.0448 53.9453 63 43 63Z" fill="url(#paint3_linear_2716_53)"/><defs><linearGradient id="paint0_linear_2716_53" x1="30.0098" y1="11.492" x2="53.0781" y2="11.492" gradientUnits="userSpaceOnUse"><stop offset="1.06556e-08" stop-color="#BF1818"/><stop offset="1" stop-color="#801B0D"/></linearGradient><linearGradient id="paint1_linear_2716_53" x1="33.9782" y1="9.01707" x2="37.883" y2="9.01707" gradientUnits="userSpaceOnUse"><stop offset="1.06556e-08" stop-color="#BF1818"/><stop offset="1" stop-color="#801B0D"/></linearGradient><linearGradient id="paint2_linear_2716_53" x1="0.958109" y1="39.4585" x2="41.9713" y2="39.4585" gradientUnits="userSpaceOnUse"><stop stop-color="#DBA500"/><stop offset="0.3573" stop-color="#D09000"/><stop offset="0.9956" stop-color="#BF6D00"/></linearGradient><linearGradient id="paint3_linear_2716_53" x1="22.9636" y1="43.0405" x2="62.9426" y2="43.0405" gradientUnits="userSpaceOnUse"><stop stop-color="#DBA500"/><stop offset="0.3573" stop-color="#D09000"/><stop offset="0.9956" stop-color="#BF6D00"/></linearGradient></defs></svg>