<svg width="17" height="48" viewBox="0 0 17 48" fill="none" xmlns="http://www.w3.org/2000/svg"><path d="M8.50136 41.1736C8.21648 41.1736 7.94328 41.0576 7.74184 40.8511C7.5404 40.6447 7.42723 40.3647 7.42723 40.0727V1.10081C7.42723 0.808856 7.5404 0.528861 7.74184 0.322419C7.94328 0.115978 8.21648 0 8.50136 0C8.78624 0 9.05945 0.115978 9.26089 0.322419C9.46233 0.528861 9.5755 0.808856 9.5755 1.10081V40.0727C9.5755 40.3647 9.46233 40.6447 9.26089 40.8511C9.05945 41.0576 8.78624 41.1736 8.50136 41.1736Z" fill="url(#paint0_linear_2046_4)"/><path d="M8.50136 41.1736C8.21648 41.1736 7.94328 41.0576 7.74184 40.8511C7.5404 40.6447 7.42723 40.3647 7.42723 40.0727V1.10081C7.42723 0.808856 7.5404 0.528861 7.74184 0.322419C7.94328 0.115978 8.21648 0 8.50136 0C8.78624 0 9.05945 0.115978 9.26089 0.322419C9.46233 0.528861 9.5755 0.808856 9.5755 1.10081V40.0727C9.5755 40.3647 9.46233 40.6447 9.26089 40.8511C9.05945 41.0576 8.78624 41.1736 8.50136 41.1736Z" fill="black" fill-opacity="0.2"/><path d="M9.34293 47.5808C9.2424 47.7115 9.11427 47.8171 8.96818 47.8897C8.82208 47.9623 8.66183 48 8.49946 48C8.33709 48 8.17684 47.9623 8.03075 47.8897C7.88466 47.8171 7.75653 47.7115 7.656 47.5808L0.230496 37.9239C0.054156 37.6946 -0.0260659 37.4029 0.00747375 37.1129C0.0410134 36.823 0.185571 36.5586 0.409343 36.3779C0.633115 36.1971 0.91777 36.1149 1.20069 36.1493C1.48361 36.1837 1.74163 36.3318 1.91796 36.5611L8.50134 45.121L15.082 36.5611C15.1694 36.4476 15.2776 36.3528 15.4007 36.2821C15.5238 36.2114 15.6592 36.1663 15.7993 36.1493C16.0822 36.1149 16.3669 36.1971 16.5907 36.3779C16.8144 36.5586 16.959 36.823 16.9925 37.1129C17.0261 37.4029 16.9458 37.6946 16.7695 37.9239L9.34293 47.5808Z" fill="url(#paint1_linear_2046_4)"/><path d="M9.34293 47.5808C9.2424 47.7115 9.11427 47.8171 8.96818 47.8897C8.82208 47.9623 8.66183 48 8.49946 48C8.33709 48 8.17684 47.9623 8.03075 47.8897C7.88466 47.8171 7.75653 47.7115 7.656 47.5808L0.230496 37.9239C0.054156 37.6946 -0.0260659 37.4029 0.00747375 37.1129C0.0410134 36.823 0.185571 36.5586 0.409343 36.3779C0.633115 36.1971 0.91777 36.1149 1.20069 36.1493C1.48361 36.1837 1.74163 36.3318 1.91796 36.5611L8.50134 45.121L15.082 36.5611C15.1694 36.4476 15.2776 36.3528 15.4007 36.2821C15.5238 36.2114 15.6592 36.1663 15.7993 36.1493C16.0822 36.1149 16.3669 36.1971 16.5907 36.3779C16.8144 36.5586 16.959 36.823 16.9925 37.1129C17.0261 37.4029 16.9458 37.6946 16.7695 37.9239L9.34293 47.5808Z" fill="black" fill-opacity="0.2"/><defs><linearGradient id="paint0_linear_2046_4" x1="16.7333" y1="22.3882" x2="1.81861" y2="50.5625" gradientUnits="userSpaceOnUse"><stop offset="0.0686888" stop-color="#2F4700"/><stop offset="1" stop-color="#1A8D00"/></linearGradient><linearGradient id="paint1_linear_2046_4" x1="16.7333" y1="22.3882" x2="1.81861" y2="50.5625" gradientUnits="userSpaceOnUse"><stop offset="0.0686888" stop-color="#2F4700"/><stop offset="1" stop-color="#1A8D00"/></linearGradient></defs></svg>
