<?xml version="1.0" encoding="utf-8"?>
<!-- Generator: Adobe Illustrator 25.4.1, SVG Export Plug-In . SVG Version: 6.00 Build 0)  -->
<svg version="1.1" id="Layer_1" xmlns="http://www.w3.org/2000/svg" xmlns:xlink="http://www.w3.org/1999/xlink" x="0px" y="0px"
	 viewBox="0 0 64 64" style="enable-background:new 0 0 64 64;" xml:space="preserve">
<style type="text/css">
	.st0{fill:url(#XMLID_00000132066959320423642640000007597498103990732162_);}
	.st1{fill:url(#XMLID_00000072266818992796684490000009586544747295472771_);}
	.st2{fill:url(#XMLID_00000161621996913473268610000016027449762007205560_);}
	.st3{fill:#DD0000;}
</style>
<g>
	<g id="XMLID_00000044173892036673984720000009555591064803218348_">
		
			<linearGradient id="XMLID_00000048470012836287123270000009138184754586052798_" gradientUnits="userSpaceOnUse" x1="-2.204724e-02" y1="33.4958" x2="63.978" y2="33.4958">
			<stop  offset="5.618000e-03" style="stop-color:#D7A844"/>
			<stop  offset="0.2528" style="stop-color:#F3D490"/>
			<stop  offset="0.3226" style="stop-color:#E7C47F"/>
			<stop  offset="0.4604" style="stop-color:#C79B52"/>
			<stop  offset="0.5955" style="stop-color:#A46D21"/>
			<stop  offset="0.8365" style="stop-color:#DEC77D"/>
			<stop  offset="0.8708" style="stop-color:#E6D48A"/>
			<stop  offset="1" style="stop-color:#E9C780"/>
		</linearGradient>
		
			<path id="XMLID_00000093144261985361190970000016736971197234043038_" style="fill:url(#XMLID_00000048470012836287123270000009138184754586052798_);" d="
			M56.1,64H7.9C3.5,64,0,60.5,0,56.3V10.7C0,6.5,3.5,3,7.9,3h48.2c4.4,0,7.9,3.5,7.9,7.7v45.5C64,60.5,60.4,64,56.1,64z M7.9,7.1
			c-2,0-3.7,1.6-3.7,3.6v45.5c0,2,1.6,3.6,3.7,3.6h48.2c2,0,3.7-1.6,3.7-3.6V10.7c0-2-1.6-3.6-3.7-3.6L7.9,7.1L7.9,7.1z"/>
	</g>
	
		<linearGradient id="XMLID_00000054976908254501157850000010879869889143467674_" gradientUnits="userSpaceOnUse" x1="13.2632" y1="5.07" x2="19.4409" y2="5.07">
		<stop  offset="5.618000e-03" style="stop-color:#D7A844"/>
		<stop  offset="0.2528" style="stop-color:#F3D490"/>
		<stop  offset="0.3226" style="stop-color:#E7C47F"/>
		<stop  offset="0.4604" style="stop-color:#C79B52"/>
		<stop  offset="0.5955" style="stop-color:#A46D21"/>
		<stop  offset="0.8365" style="stop-color:#DEC77D"/>
		<stop  offset="0.8708" style="stop-color:#E6D48A"/>
		<stop  offset="1" style="stop-color:#E9C780"/>
	</linearGradient>
	
		<path id="XMLID_00000097497432011331648730000004171453350291649180_" style="fill:url(#XMLID_00000054976908254501157850000010879869889143467674_);" d="
		M17.5,10.1h-2.3c-1.1,0-2-0.9-2-1.9V1.9c0-1.1,0.9-1.9,2-1.9h2.3c1.1,0,2,0.9,2,1.9v6.3C19.4,9.3,18.6,10.1,17.5,10.1z"/>
	
		<linearGradient id="XMLID_00000182496711429901580960000006499066217112939142_" gradientUnits="userSpaceOnUse" x1="44.5257" y1="5.07" x2="50.7034" y2="5.07">
		<stop  offset="5.618000e-03" style="stop-color:#D7A844"/>
		<stop  offset="0.2528" style="stop-color:#F3D490"/>
		<stop  offset="0.3226" style="stop-color:#E7C47F"/>
		<stop  offset="0.4604" style="stop-color:#C79B52"/>
		<stop  offset="0.5955" style="stop-color:#A46D21"/>
		<stop  offset="0.8365" style="stop-color:#DEC77D"/>
		<stop  offset="0.8708" style="stop-color:#E6D48A"/>
		<stop  offset="1" style="stop-color:#E9C780"/>
	</linearGradient>
	
		<path id="XMLID_00000124128586501093144450000003378882448727975042_" style="fill:url(#XMLID_00000182496711429901580960000006499066217112939142_);" d="
		M48.7,10.1h-2.3c-1.1,0-2-0.9-2-1.9V1.9c0-1.1,0.9-1.9,2-1.9h2.3c1.1,0,2,0.9,2,1.9v6.3C50.7,9.3,49.8,10.1,48.7,10.1z"/>
</g>
<g>
	<g id="XMLID_00000029730110261081733240000013313802057654036650_">
		<path id="XMLID_00000119822686528438093760000017343159746235714995_" class="st3" d="M32,53.7c-0.4,0-0.8-0.1-1.1-0.3
			C11.7,41.9,12.2,30.9,13.3,26.6c1.2-4.7,5-8.1,9.1-8.3c4.6-0.2,7.8,1.8,9.6,3.8c1.9-2.1,5-4,9.6-3.8l0,0c4.1,0.1,7.9,3.5,9.1,8.3
			c1.1,4.2,1.6,15.3-17.6,26.8C32.8,53.6,32.4,53.7,32,53.7z M22.9,22.7c-0.1,0-0.3,0-0.4,0c-1.9,0.1-4.2,1.8-5,5
			C16.8,30.2,16,39,32,49c16-10,15.2-18.8,14.5-21.3c-0.8-3.2-3.2-5-5-5l0,0c-5.7-0.2-7.3,3.8-7.5,4.3c-0.3,0.9-1.1,1.4-2,1.4
			c-0.9,0-1.7-0.6-2-1.4C29.8,26.5,28.2,22.7,22.9,22.7z"/>
	</g>
</g>
</svg>
