<?xml version="1.0" encoding="utf-8"?>
<!-- Generator: Adobe Illustrator 25.4.1, SVG Export Plug-In . SVG Version: 6.00 Build 0)  -->
<svg version="1.1" id="Layer_1" xmlns="http://www.w3.org/2000/svg" xmlns:xlink="http://www.w3.org/1999/xlink" x="0px" y="0px"
	 viewBox="0 0 64 64" style="enable-background:new 0 0 64 64;" xml:space="preserve">
<style type="text/css">
	.st0{fill:url(#XMLID_00000163071083714147675290000015818536109240959894_);}
	.st1{fill:url(#XMLID_00000016049541119557188890000014680534898877793455_);}
	.st2{fill:url(#XMLID_00000020357515081742680660000011604605252036450183_);}
	.st3{fill:url(#XMLID_00000142867437593048736890000006423447287140989091_);}
</style>
<g>
	<g id="XMLID_00000073710729941554065280000009698995676491567768_">
		
			<linearGradient id="XMLID_00000091003023464730618990000017395561389188120495_" gradientUnits="userSpaceOnUse" x1="29.7281" y1="11.8887" x2="52.9498" y2="11.8887">
			<stop  offset="1.065558e-08" style="stop-color:#BF1818"/>
			<stop  offset="1" style="stop-color:#801B0D"/>
		</linearGradient>
		
			<path id="XMLID_00000120527013920834665510000009005330014856960136_" style="fill:url(#XMLID_00000091003023464730618990000017395561389188120495_);" d="
			M41.3,22.6c-0.2,0-0.5-0.1-0.7-0.2C29,15.5,29.3,8.8,30,6.2c0.7-2.9,3-4.9,5.5-5c2.8-0.1,4.7,1,5.8,2.3c1.2-1.2,3-2.4,5.8-2.3l0,0
			c2.5,0.1,4.8,2.2,5.5,5c0.7,2.6,0.9,9.3-10.6,16.2C41.8,22.5,41.6,22.6,41.3,22.6z M35.9,3.9c-0.1,0-0.2,0-0.2,0
			c-1.1,0-2.5,1.1-3,3c-0.4,1.5-0.9,6.7,8.7,12.7c9.5-6,9.1-11.2,8.7-12.7c-0.5-1.9-1.9-2.9-3-3l0,0c-3.4-0.1-4.4,2.5-4.4,2.5
			c-0.2,0.6-0.7,0.9-1.3,0.9c-0.6,0-1.1-0.4-1.3-0.9C39.9,6.2,39,3.9,35.9,3.9z"/>
	</g>
	<g id="XMLID_00000096023986894262994690000014884487541840193450_">
		
			<linearGradient id="XMLID_00000108274078035979659940000017899646757231554974_" gradientUnits="userSpaceOnUse" x1="33.7907" y1="9.1596" x2="37.6985" y2="9.1596">
			<stop  offset="1.065558e-08" style="stop-color:#BF1818"/>
			<stop  offset="1" style="stop-color:#801B0D"/>
		</linearGradient>
		
			<path id="XMLID_00000044156922406743440310000015478541257663683774_" style="fill:url(#XMLID_00000108274078035979659940000017899646757231554974_);" d="
			M36.2,13.2c-0.3,0-0.6-0.1-0.7-0.4C34,11,33.5,9.1,34,7.5c0.5-1.6,1.9-2.3,2.7-2.4c0.5-0.1,1,0.3,1.1,0.8c0.1,0.5-0.3,1-0.7,1.1
			c-0.1,0-0.9,0.2-1.2,1.1c-0.3,1.1,0.1,2.3,1.1,3.8c0.3,0.4,0.2,1-0.2,1.3C36.6,13.2,36.4,13.2,36.2,13.2z"/>
	</g>
	<g id="XMLID_00000168802872369427708230000012436485826313091232_">
		
			<linearGradient id="XMLID_00000001647605323113098380000000845068754696045486_" gradientUnits="userSpaceOnUse" x1="0.9577" y1="39.6581" x2="42.371" y2="39.6581">
			<stop  offset="0" style="stop-color:#DBA500"/>
			<stop  offset="0.3573" style="stop-color:#D09000"/>
			<stop  offset="0.9956" style="stop-color:#BF6D00"/>
		</linearGradient>
		
			<path id="XMLID_00000088825548392313463330000012995160387047256731_" style="fill:url(#XMLID_00000001647605323113098380000000845068754696045486_);" d="
			M21.7,60.4C10.2,60.4,1,51.1,1,39.7C1,28.2,10.2,19,21.7,19c3.8,0,7.6,1.1,10.8,3.1c0.9,0.5,1.1,1.7,0.6,2.5
			c-0.5,0.9-1.7,1.1-2.5,0.6c-2.7-1.6-5.8-2.5-8.9-2.5c-9.4,0-17,7.6-17,17s7.6,17,17,17s17-7.6,17-17c0-3-0.8-5.9-2.2-8.4
			c-0.5-0.9-0.2-2,0.7-2.5c0.9-0.5,2-0.2,2.5,0.7c1.8,3.1,2.7,6.7,2.7,10.2C42.4,51.1,33.1,60.4,21.7,60.4z"/>
	</g>
	<g id="XMLID_00000083791737771840173180000015062788035571344295_">
		
			<linearGradient id="XMLID_00000096757426998080546720000005356579978532297358_" gradientUnits="userSpaceOnUse" x1="22.8634" y1="43.7407" x2="63.0423" y2="43.7407">
			<stop  offset="0" style="stop-color:#DBA500"/>
			<stop  offset="0.3573" style="stop-color:#D09000"/>
			<stop  offset="0.9956" style="stop-color:#BF6D00"/>
		</linearGradient>
		
			<path id="XMLID_00000173872672754926037650000009196276423500060085_" style="fill:url(#XMLID_00000096757426998080546720000005356579978532297358_);" d="
			M43,63.8c-1.8,0-3.6-0.2-5.4-0.7c-1-0.3-1.6-1.3-1.3-2.3c0.3-1,1.3-1.6,2.3-1.3c1.4,0.4,2.9,0.6,4.4,0.6c9,0,16.4-7.4,16.4-16.4
			S52,27.3,43,27.3s-16.4,7.4-16.4,16.4c0,2.3,0.5,4.6,1.4,6.7c0.4,0.9,0,2-0.9,2.4c-0.9,0.4-2,0-2.4-0.9c-1.2-2.6-1.8-5.4-1.8-8.2
			c0-11.1,9-20.1,20.1-20.1c11.1,0,20.1,9,20.1,20.1C63,54.8,54,63.8,43,63.8z"/>
	</g>
</g>
</svg>
