<svg width="74" height="74" viewBox="0 0 74 74" fill="none" xmlns="http://www.w3.org/2000/svg">
<path d="M57.08 40.2663H57.0975C57.0975 40.2663 50.5 49.9776 44.9525 57.1951C40.1575 63.4293 38.7575 68.7678 38.355 71.3493C38.1975 72.2976 37.4275 73 36.5 73C35.5725 73 34.8025 72.2976 34.645 71.3493C34.2425 68.7678 32.8425 63.4293 28.0475 57.1951C27.3125 56.2293 26.56 55.2283 25.8075 54.2098L43.92 32.6098L58.4975 15.2595C60.1075 18.6488 61 22.442 61 26.4634C61 31.5561 59.5475 36.28 57.08 40.2663Z" fill="#48B564"/>
<path d="M43.92 32.6098L25.8075 54.2098C20.8725 47.5717 15.9025 40.2663 15.9025 40.2663H15.92C15.395 39.4234 14.9225 38.5629 14.52 37.6673L29.08 20.3171C27.6975 21.9854 26.875 24.1278 26.875 26.4634C26.875 31.802 31.18 36.122 36.5 36.122C39.4925 36.122 42.17 34.7522 43.92 32.6098Z" fill="#FCC60E"/>
<path d="M44.2 2.29951L29.2025 20.1766L17.7225 10.1317C22.2025 4.54732 28.9575 1 36.5 1C39.195 1 41.785 1.45658 44.2 2.29951Z" fill="#2C85EB"/>
<path d="M29.2025 20.1766L29.08 20.3171L14.52 37.6673C12.91 34.278 12 30.4849 12 26.4634C12 20.2468 14.1525 14.5395 17.7225 10.1317L29.2025 20.1766Z" fill="#ED5748"/>
<path d="M43.92 32.6098C45.3025 30.9415 46.125 28.799 46.125 26.4634C46.125 21.1249 41.82 16.8049 36.5 16.8049C33.5075 16.8049 30.83 18.1746 29.08 20.3171L44.2 2.29951C50.4825 4.44195 55.6275 9.16585 58.4975 15.2595L43.92 32.6098Z" fill="#5695F6"/>
</svg>
