<svg width="74" height="74" viewBox="0 0 74 74" fill="none" xmlns="http://www.w3.org/2000/svg"><path d="M33.9622 57.8837C36.0256 57.8837 38.089 57.9765 40.1524 57.8398C42.03 57.747 44.0054 57.5664 45.839 57.1074C60.4199 53.5381 68.2139 37.4643 61.8379 23.8709C57.9848 15.6729 51.3839 11.0002 42.3527 10.0383C35.429 9.30586 29.2388 11.3664 24.0118 16.0342C18.8777 20.6581 16.2178 26.4246 16.0368 33.3385C15.9928 34.94 16.0368 36.5903 16.0368 38.1919C15.9879 41.6781 14.0174 44.3782 10.668 45.428C10.624 45.428 10.5311 45.5208 10.4822 45.5208C11.7682 48.9094 16.9903 53.8995 20.2468 55.1348C24.3345 49.549 32.5833 51.5216 33.9622 57.8837Z" fill="white"/><path d="M33.8692 60.9501C33.3656 63.2401 32.1285 64.9344 30.1091 65.9842C27.5421 67.3123 24.9261 67.2683 22.496 65.7107C19.973 64.1092 18.8728 61.6825 19.0586 58.7041C19.1026 58.2012 18.9657 58.0156 18.555 57.7861C14.1054 55.4522 10.58 52.2003 8.14987 47.8059C7.69025 46.9368 7.32353 46.0189 7.09372 45.057C6.771 43.7289 7.27952 43.0892 8.65351 42.9525C10.3062 42.767 11.7731 42.1274 12.5065 40.5698C12.8292 39.8813 13.0102 39.061 13.0102 38.2798C13.1031 36.3121 13.0102 34.3443 13.1031 32.3717C13.6067 24.7694 16.7703 18.4561 22.5498 13.5099C27.8648 8.93972 34.0991 6.79134 41.1108 7.01594C53.3544 7.47491 63.8524 16.0831 66.3265 28.1238C68.5708 39.022 65.1823 48.1331 56.5131 55.2276C56.0094 55.6378 55.4569 56.0528 54.8604 56.419C54.5376 56.6485 54.4496 56.8291 54.5865 57.1953C55.7307 60.6767 54.1269 64.5194 50.9193 66.1697C46.5627 68.323 41.5215 66.1258 40.1915 61.453C40.1475 61.2675 39.9177 61.0429 39.7808 61.0429C37.8592 60.9062 35.8838 60.9501 33.8692 60.9501ZM33.9621 57.8838C36.0256 57.8838 38.089 57.9766 40.1524 57.8398C42.03 57.7471 44.0054 57.5664 45.839 57.1074C60.4199 53.5382 68.2139 37.4644 61.8378 23.871C57.9848 15.6729 51.3838 11.0002 42.3527 10.0383C35.429 9.30592 29.2388 11.3664 24.0118 16.0343C18.8777 20.6582 16.2177 26.4246 16.0368 33.3385C15.9928 34.94 16.0368 36.5904 16.0368 38.1919C15.9879 41.6781 14.0174 44.3783 10.668 45.4281C10.624 45.4281 10.5311 45.5208 10.4822 45.5208C11.7682 48.9094 16.9903 53.8995 20.2468 55.1348C24.3345 49.549 32.5833 51.5216 33.9621 57.8838Z" fill="black"/><path d="M43.6338 45.9359C38.221 45.6625 34.6467 43.5092 32.3534 39.2076C31.8009 38.1529 32.3094 37.1031 33.3607 36.8737C34.0012 36.7369 34.5978 37.1959 35.0574 37.9283C35.6539 38.8463 36.2505 39.7593 37.0279 40.4917C41.3357 44.5639 48.3963 43.2846 51.1051 38.0211C51.4278 37.3815 51.8386 36.8785 52.616 36.8785C53.7602 36.9225 54.4056 38.0699 53.902 39.1197C52.4791 42.0054 50.2348 44.1098 47.2081 45.1156C45.8781 45.5697 44.5041 45.7504 43.6338 45.9359Z" fill="black"/><path d="M34.0502 30.9166C32.3975 30.9166 31.0724 29.5885 31.0724 27.943C31.0724 26.2976 32.4024 24.9695 34.0502 24.9695C35.698 24.9695 37.0279 26.2976 37.0279 27.943C37.0328 29.5446 35.7029 30.9166 34.0502 30.9166Z" fill="black"/><path d="M55.0511 27.8945C55.0511 29.5448 53.7211 30.868 52.1173 30.9168C50.4646 30.9168 49.1395 29.6327 49.1395 27.9433C49.1395 26.2929 50.4255 24.9697 52.0733 24.9209C53.6771 24.9209 55.0022 26.249 55.0511 27.8945Z" fill="black"/></svg>
